<?xml version="1.0" encoding="UTF-8" standalone="no"?><!DOCTYPE svg PUBLIC "-//W3C//DTD SVG 1.1//EN" "http://www.w3.org/Graphics/SVG/1.1/DTD/svg11.dtd"><svg width="100%" height="100%" viewBox="0 0 93 93" version="1.1" xmlns="http://www.w3.org/2000/svg" xmlns:xlink="http://www.w3.org/1999/xlink" xml:space="preserve" xmlns:serif="http://www.serif.com/" style="fill-rule:evenodd;clip-rule:evenodd;stroke-linejoin:round;stroke-miterlimit:2;"><g><path d="M34.56,5.76l0,5.76c-3.16,0 -5.76,2.6 -5.76,5.76l0,57.6l-5.76,0l0,-11.52l-11.52,0l0,11.52c0.002,2.054 1.101,3.957 2.88,4.984c0.875,0.507 1.869,0.775 2.88,0.776l0,5.76l40.32,0c6.32,0 11.52,-5.2 11.52,-11.52l0,-46.08l17.28,0l0,-11.52c0,-6.32 -5.2,-11.52 -11.52,-11.52l-40.32,0Z" style="fill:#e0e0e0;fill-rule:nonzero;"/><path d="M34.56,5.76c-6.362,0 -11.52,5.158 -11.52,11.52l0,40.32l-17.28,0l0,17.28c0,6.362 5.158,11.52 11.52,11.52c6.362,0 11.52,-5.158 11.52,-11.52l0,-57.6c0,-3.181 2.579,-5.76 5.76,-5.76c3.181,0 5.76,2.579 5.76,5.76l0,17.28l28.8,0l0,-5.76l-23.04,0l0,-11.52c0,-6.362 -5.158,-11.52 -11.52,-11.52Zm-23.04,57.6l11.52,0l0,11.52c0,3.181 -2.579,5.76 -5.76,5.76c-3.181,0 -5.76,-2.579 -5.76,-5.76l0,-11.52Z" style="fill:#b3b3b3;fill-rule:nonzero;"/><path d="M17.28,69.12Z" style="fill:#e0e0e0;"/><path d="M48.777,67.193c-3.817,0.008 -5.473,0.222 -4.864,-5.178c0.58,-5.144 -0,-5.177 -0,-5.177l-2.654,2.654c-0.812,0.812 -1.617,0.815 -2.426,-0l-4.094,-4.095c-0.596,-0.595 -0.582,-1.467 -0,-2.076c1.485,-1.555 8.618,-13.028 14.221,-13.578l0.033,0.003c5.598,0.593 12.706,12.024 14.188,13.575c0.582,0.609 0.596,1.481 0,2.076l-4.094,4.095c-0.809,0.815 -1.614,0.812 -2.426,-0l-2.654,-2.654c0,-0 -0.58,0.033 0,5.177c0.619,5.486 -1.101,5.178 -5.047,5.178l-0.183,-0Z" style="fill:#b3b3b3;"/></g></svg>